<svg width="78" height="78" viewBox="0 0 78 78" fill="none" xmlns="http://www.w3.org/2000/svg">
<g filter="url(#filter0_d_3_142)">
<circle cx="39" cy="35" r="35" fill="white"/>
</g>
<path d="M31.64 50V22H43.04C44.56 22 45.9333 22.3867 47.16 23.16C48.4133 23.9067 49.4133 24.9333 50.16 26.24C50.9067 27.5467 51.28 29 51.28 30.6C51.28 32.2 50.9067 33.6533 50.16 34.96C49.4133 36.2667 48.4133 37.32 47.16 38.12C45.9333 38.8933 44.56 39.28 43.04 39.28H35.64L35.96 38.72V50H31.64ZM27.92 45.32V41.72H38.64V45.32H27.92ZM27.96 39.16V35.44H32.08V39.16H27.96ZM35.96 35.68L35.6 35.12H42.96C43.68 35.12 44.3333 34.92 44.92 34.52C45.5067 34.0933 45.9733 33.5333 46.32 32.84C46.6933 32.1467 46.88 31.4 46.88 30.6C46.88 29.7733 46.6933 29.0267 46.32 28.36C45.9733 27.6933 45.5067 27.16 44.92 26.76C44.3333 26.36 43.68 26.16 42.96 26.16H35.6L35.96 25.56V35.68Z" fill="black"/>
<defs>
<filter id="filter0_d_3_142" x="0" y="0" width="78" height="78" filterUnits="userSpaceOnUse" color-interpolation-filters="sRGB">
<feFlood flood-opacity="0" result="BackgroundImageFix"/>
<feColorMatrix in="SourceAlpha" type="matrix" values="0 0 0 0 0 0 0 0 0 0 0 0 0 0 0 0 0 0 127 0" result="hardAlpha"/>
<feOffset dy="4"/>
<feGaussianBlur stdDeviation="2"/>
<feComposite in2="hardAlpha" operator="out"/>
<feColorMatrix type="matrix" values="0 0 0 0 0 0 0 0 0 0 0 0 0 0 0 0 0 0 0.25 0"/>
<feBlend mode="normal" in2="BackgroundImageFix" result="effect1_dropShadow_3_142"/>
<feBlend mode="normal" in="SourceGraphic" in2="effect1_dropShadow_3_142" result="shape"/>
</filter>
</defs>
</svg>
